<svg xmlns="http://www.w3.org/2000/svg" viewBox="0 0 64 64" role="img" aria-label="MediCore favicon">
    <defs>
        <clipPath id="heartClip">
            <path
                d="M32 51c-9.2-6.7-16-12.2-16-20.1 0-5.1 3.9-9.1 8.9-9.1 3 0 5.8 1.5 7.1 3.9 1.3-2.4 4.1-3.9 7.1-3.9 5 0 8.9 4 8.9 9.1 0 7.9-6.8 13.4-16 20.1z" />
        </clipPath>
    </defs>

    <rect x="2" y="2" width="60" height="60" rx="14" fill="#0fa66a" />

    <path
        d="M32 51c-9.2-6.7-16-12.2-16-20.1 0-5.1 3.9-9.1 8.9-9.1 3 0 5.8 1.5 7.1 3.9 1.3-2.4 4.1-3.9 7.1-3.9 5 0 8.9 4 8.9 9.1 0 7.9-6.8 13.4-16 20.1z"
        fill="#ffffff" />

    <path d="M19.5 32.6h5.8l2-4.2 3 8.8 2.8-6.1h4.2l1.9 2.3h5.3" fill="none" stroke="#45d48f" stroke-width="2.1"
        stroke-linecap="round" stroke-linejoin="round" clip-path="url(#heartClip)" />
</svg>